<?xml version="1.0" encoding="utf-8"?>
<!-- Generator: Adobe Illustrator 16.0.0, SVG Export Plug-In . SVG Version: 6.00 Build 0)  -->
<!DOCTYPE svg PUBLIC "-//W3C//DTD SVG 1.1//EN" "http://www.w3.org/Graphics/SVG/1.1/DTD/svg11.dtd">
<svg version="1.1" id="Laag_1" xmlns="http://www.w3.org/2000/svg" xmlns:xlink="http://www.w3.org/1999/xlink" x="0px" y="0px"
	 width="241.234px" height="29.274px" viewBox="0 0 241.234 29.274" enable-background="new 0 0 241.234 29.274"
	 xml:space="preserve">
<g>
	<g>
		<path fill="#C1BFBF" d="M57.794,1.367v25.302h-5.431V1.367H57.794z M62.938,26.669l-4.505-14.088V1.367h1.661l4.345,17.379
			l4.249-17.379h1.693v11.405l-4.664,13.897H62.938z M76.547,1.367v25.302h-5.495V1.367H76.547z"/>
		<path fill="#C1BFBF" d="M79.709,1.367h5.974v25.302h-5.974V1.367z"/>
		<path fill="#C1BFBF" d="M94.309,1.367v25.302h-5.431V1.367H94.309z M101.337,24.976l-6.325-12.811V3.348l6.325,12.907V24.976z
			 M107.535,1.367v25.302h-5.526V1.367H107.535z"/>
		<path fill="#C1BFBF" d="M119.036,27.18c-5.602-0.192-8.402-2.769-8.402-7.731V1.367h5.942v19.008c0,1.64,0.819,2.545,2.46,2.715
			V27.18z M120.058,23.091c0.83-0.085,1.464-0.335,1.9-0.75c0.437-0.416,0.655-1.07,0.655-1.965V1.367h6.006v18.209
			c-0.021,4.941-2.875,7.476-8.562,7.604V23.091z"/>
		<path fill="#C1BFBF" d="M148.682,1.367v4.249h-18.019V1.367H148.682z M136.734,6.606h5.814v20.063h-5.814V6.606z"/>
		<path fill="#C1BFBF" d="M156.508,1.367v25.302h-5.846V1.367H156.508z M157.403,1.367h7.604v4.249h-7.604V1.367z M157.403,11.398
			h7.156v4.217h-7.156V11.398z M165.006,26.669h-7.604v-4.377h7.604V26.669z"/>
		<path fill="#C1BFBF" d="M183.759,1.367v25.302h-5.431V1.367H183.759z M188.903,26.669l-4.505-14.088V1.367h1.661l4.345,17.379
			l4.249-17.379h1.693v11.405l-4.664,13.897H188.903z M202.512,1.367v25.302h-5.495V1.367H202.512z"/>
		<path fill="#C1BFBF" d="M211.521,1.367v25.302h-5.846V1.367H211.521z M212.416,1.367h7.604v4.249h-7.604V1.367z M212.416,11.398
			h7.156v4.217h-7.156V11.398z M220.019,26.669h-7.604v-4.377h7.604V26.669z"/>
		<path fill="#C1BFBF" d="M227.973,1.367v25.302h-5.431V1.367H227.973z M235.001,24.976l-6.325-12.811V3.348l6.325,12.907V24.976z
			 M241.199,1.367v25.302h-5.526V1.367H241.199z"/>
	</g>
	<path fill="#C1BFBF" d="M20.032,0c-0.599-0.001-1.217,0.059-1.845,0.184c-2.22,0.441-4.031,1.606-4.995,3.031
		c-5.147,2.54-8.486,6.327-7.788,10.032c0.084,0.085,0.284,0.478,0.408,0.405l6.872-1.494c-0.076,0.224-0.003,0.439-0.225,0.625
		c-0.38,0.315-1.174,0.952-1.588,2.097c-0.85,1.366,1.501,3.035,0.41,4.253c-1.292-0.163-2.548-0.186-3.181,2.289
		c-1.169-0.018-1.527,1.386-2.035,2.672c-0.469,1.843-0.52,2.552-1.826,3.681C2.121,28.32,1.188,28.338,0,26.559
		c0.29,1.039,0.358,1.587,0.842,2.054c3.164,2.193,5.961-1.579,7.152-3.905c0.274-0.56,0.506-0.985,0.834-1.211
		c0.372-0.257,0.867-0.26,1.689,0.088c0.891,0,2.162-1.654,2.162-1.654l0.083-0.166c1.79-0.164,3.179,0.873,4.494,2.133
		c1.56,1.917,3.12,3.145,4.68,2.674c0.402-0.907,0.777-2.561,2.075-3.369l-1.057-0.636v-0.195l1.014-1.568
		c1.469,0.527,2.281,0.75,3.737,0.626c0.415,0.005,0.439-0.087,0.721-0.338c0.32-0.285,0.7-0.605,0.569-1.212l-0.397-1.363
		l0.556-0.358l-0.476-0.646l0.476-0.358c-0.2-0.349-0.444-0.705-0.317-1.668l1.271-0.268c0.25-0.258,0.367-0.543,0.318-0.86
		l-1.985-2.797l0.396-0.645l-0.556-1.864l-0.218-0.507l6.461-1.666c0.368-0.25,0.23-0.275,0.267-0.625
		c-1.032-3.489-5.497-5.598-11.077-5.552c-0.13,0.001-0.26,0.004-0.39,0.008C22.391,0.257,21.257,0.002,20.032,0z"/>
	<path fill="#C1BFBF" d="M20.032,0l0-0.168h-0.015c-0.605,0-1.23,0.061-1.863,0.187c-2.258,0.45-4.106,1.632-5.101,3.102
		l0.139,0.094l-0.074-0.151C8.403,5.395,5.154,8.767,5.144,12.26c0,0.339,0.031,0.679,0.095,1.018l0.009,0.051l0.037,0.037
		c0.009,0.005,0.083,0.118,0.153,0.217l0.126,0.147c0.049,0.042,0.105,0.094,0.215,0.099l0.117-0.032l-0.084-0.146l0.036,0.164
		l6.872-1.494l-0.036-0.164l-0.159-0.054c-0.047,0.144-0.047,0.266-0.064,0.351l-0.109,0.198c-0.38,0.315-1.209,0.978-1.639,2.169
		l0.158,0.057l-0.143-0.089c-0.153,0.244-0.215,0.504-0.215,0.76c0.002,0.521,0.241,1.021,0.463,1.501
		c0.226,0.479,0.434,0.938,0.432,1.321c-0.002,0.233-0.066,0.438-0.252,0.647l0.125,0.112l0.021-0.167
		c-0.274-0.034-0.55-0.063-0.825-0.063c-0.515-0.001-1.034,0.106-1.48,0.482s-0.805,1-1.06,1.996L8.1,21.421l0.003-0.168l-0.025,0
		c-0.653-0.002-1.091,0.411-1.394,0.94c-0.31,0.533-0.524,1.206-0.774,1.838l-0.004,0.01l-0.003,0.01
		c-0.235,0.926-0.365,1.559-0.591,2.083c-0.225,0.524-0.541,0.956-1.182,1.512l0.11,0.127l-0.042-0.163
		c-0.76,0.196-1.359,0.32-1.854,0.32c-0.871-0.007-1.447-0.348-2.203-1.466l-0.302,0.139c0.144,0.515,0.233,0.912,0.352,1.251
		c0.118,0.339,0.271,0.625,0.536,0.878l0.01,0.009l0.011,0.008c0.693,0.481,1.383,0.691,2.043,0.691
		c1.233-0.002,2.334-0.718,3.243-1.646c0.91-0.93,1.635-2.083,2.111-3.012l0.001-0.001l0-0.001c0.271-0.559,0.501-0.96,0.779-1.147
		c0.146-0.1,0.306-0.153,0.523-0.154c0.25,0,0.577,0.077,1.005,0.259l0.031,0.013h0.034c0.547-0.011,1.087-0.455,1.532-0.874
		c0.439-0.423,0.761-0.841,0.764-0.845l0.01-0.013l0.09-0.18l-0.15-0.075l0.015,0.167c0.121-0.011,0.239-0.017,0.355-0.017
		c1.539-0.002,2.79,0.937,4.007,2.104l0.116-0.122l-0.13,0.106c1.345,1.646,2.697,2.828,4.133,2.836
		c0.242,0,0.485-0.035,0.726-0.107l0.074-0.022l0.031-0.07c0.409-0.938,0.787-2.54,2.01-3.294l0.233-0.145l-1.21-0.729v-0.05
		l0.987-1.526l-0.141-0.091l-0.057,0.158c1.205,0.432,1.996,0.67,3.06,0.669c0.234,0,0.48-0.011,0.748-0.034l-0.014-0.167
		l-0.002,0.168l0.032,0c0.203,0.001,0.35-0.026,0.474-0.102c0.122-0.075,0.197-0.164,0.329-0.279
		c0.268-0.239,0.65-0.553,0.652-1.101c0-0.086-0.01-0.177-0.03-0.271l-0.001-0.006l-0.364-1.249l0.451-0.29l0.151-0.097
		l-0.484-0.656l0.343-0.258l0.119-0.089L29.3,17.073c-0.165-0.291-0.326-0.52-0.33-1.093c0-0.136,0.01-0.291,0.034-0.469
		l-0.167-0.022l0.035,0.165l1.321-0.279l0.036-0.037c0.233-0.239,0.377-0.523,0.376-0.836l-0.013-0.167l-0.006-0.039l-1.944-2.739
		l0.338-0.55l0.04-0.064l-0.581-1.945L28.295,8.66l6.299-1.625l0.024-0.016c0.123-0.084,0.203-0.148,0.262-0.229l0.075-0.254
		l-0.004-0.144l0.006-0.118l0.004-0.034l-0.01-0.032c-1.066-3.567-5.529-5.671-11.062-5.673l-0.178,0.001
		C23.582,0.537,23.45,0.54,23.32,0.544l0.005,0.168l0.074-0.151c-0.96-0.468-2.118-0.727-3.366-0.729L20.032,0l0,0.168
		c1.202,0.002,2.312,0.252,3.219,0.695l0.037,0.019L23.33,0.88c0.129-0.004,0.258-0.007,0.387-0.008l0.174,0
		c5.463-0.002,9.764,2.096,10.739,5.433l0.161-0.048l-0.167-0.018l-0.008,0.154l0.003,0.144l-0.013,0.06
		c-0.014,0.021-0.065,0.071-0.177,0.146l0.095,0.139l-0.042-0.163l-6.651,1.715l0.292,0.678l0.532,1.783l-0.357,0.581l-0.059,0.095
		l2.049,2.888l0.137-0.097l-0.166,0.026l0.009,0.115c0,0.209-0.09,0.403-0.281,0.602l0.121,0.117l-0.035-0.165l-1.387,0.292
		l-0.016,0.118c-0.025,0.191-0.037,0.36-0.037,0.513c-0.004,0.643,0.216,0.988,0.375,1.26l0.146-0.083l-0.101-0.134l-0.476,0.358
		l-0.133,0.1l0.469,0.635l-0.405,0.261l-0.106,0.068l0.433,1.483l0.162-0.047l-0.165,0.035l0.023,0.201
		c0.002,0.369-0.256,0.599-0.54,0.85c-0.143,0.129-0.22,0.209-0.278,0.242c-0.056,0.033-0.118,0.052-0.301,0.053h-0.028H27.7
		l-0.008,0c-0.259,0.022-0.496,0.033-0.719,0.033c-1.01,0-1.744-0.218-2.947-0.649L23.9,20.601l-1.113,1.721v0.245v0.095
		l1.138,0.686l0.087-0.144l-0.089-0.143c-1.372,0.86-1.744,2.567-2.14,3.443l0.154,0.068l-0.048-0.161
		c-0.21,0.063-0.419,0.094-0.629,0.094c-1.232,0.009-2.549-1.081-3.872-2.712l-0.007-0.008l-0.007-0.007
		c-1.229-1.177-2.552-2.195-4.24-2.197c-0.127,0-0.255,0.006-0.386,0.018l-0.093,0.009l-0.125,0.249l0.15,0.075l-0.133-0.103
		c0,0-0.076,0.099-0.207,0.251c-0.195,0.228-0.511,0.571-0.853,0.852c-0.34,0.283-0.713,0.491-0.969,0.485v0.168l0.065-0.155
		c-0.452-0.191-0.818-0.285-1.136-0.285c-0.275-0.001-0.515,0.075-0.714,0.214c-0.378,0.266-0.612,0.714-0.889,1.275l0.151,0.074
		l-0.149-0.077c-0.464,0.905-1.177,2.036-2.052,2.93c-0.877,0.897-1.908,1.547-3.003,1.545c-0.589,0-1.206-0.184-1.852-0.631
		l-0.096,0.138l0.117-0.121c-0.22-0.213-0.342-0.436-0.452-0.747c-0.109-0.311-0.199-0.708-0.345-1.231L0,26.559l-0.14,0.093
		c0.763,1.157,1.498,1.622,2.482,1.615c0.551,0,1.171-0.133,1.938-0.331l0.038-0.01l0.03-0.026c0.665-0.573,1.028-1.061,1.272-1.634
		c0.244-0.573,0.373-1.216,0.607-2.133l-0.163-0.042l0.156,0.062c0.254-0.645,0.47-1.308,0.752-1.792
		c0.289-0.487,0.605-0.771,1.104-0.773h0.02l0.133,0.002l0.033-0.129c0.245-0.958,0.58-1.51,0.951-1.822
		c0.37-0.311,0.79-0.402,1.263-0.403c0.251,0,0.514,0.027,0.783,0.061l0.087,0.011l0.059-0.065c0.24-0.266,0.339-0.571,0.338-0.872
		c-0.003-0.498-0.241-0.984-0.463-1.463c-0.225-0.478-0.434-0.947-0.432-1.359c0-0.203,0.046-0.393,0.164-0.583l0.01-0.015
		l0.006-0.017c0.398-1.099,1.158-1.71,1.538-2.025c0.146-0.118,0.206-0.274,0.226-0.397c0.021-0.125,0.023-0.223,0.051-0.303
		l0.095-0.281L5.75,13.493l-0.023,0.013l0.052,0.089v-0.103l-0.052,0.014l0.052,0.089v-0.103v0.066l0.033-0.06l-0.033-0.007v0.066
		l0.033-0.06l-0.126-0.148l-0.163-0.223l-0.119,0.119l0.165-0.031c-0.06-0.318-0.089-0.637-0.089-0.955
		C5.47,8.993,8.6,5.664,13.267,3.366l0.04-0.02l0.025-0.037c0.932-1.38,2.707-2.528,4.888-2.96c0.612-0.122,1.215-0.181,1.798-0.181
		h0.014L20.032,0z"/>
</g>
<g>
</g>
<g>
</g>
<g>
</g>
<g>
</g>
<g>
</g>
<g>
</g>
<g>
</g>
<g>
</g>
<g>
</g>
<g>
</g>
<g>
</g>
<g>
</g>
<g>
</g>
<g>
</g>
<g>
</g>
</svg>
