<?xml version="1.0" encoding="utf-8"?>
<!-- Generator: Adobe Illustrator 16.0.0, SVG Export Plug-In . SVG Version: 6.00 Build 0)  -->
<!DOCTYPE svg PUBLIC "-//W3C//DTD SVG 1.1//EN" "http://www.w3.org/Graphics/SVG/1.1/DTD/svg11.dtd">
<svg version="1.1" id="Laag_1" xmlns="http://www.w3.org/2000/svg" xmlns:xlink="http://www.w3.org/1999/xlink" x="0px" y="0px"
	 width="200px" height="200px" viewBox="97.634 1490.948 200 200" enable-background="new 97.634 1490.948 200 200"
	 xml:space="preserve">
<g>
	<title>creek united</title>
	<title>Layer 1</title>
	<path id="svg_1" fill="#FFFF00" stroke="#FFFFFF" stroke-width="2" d="M193.965,1498.065h0.682l2.938,1.477
		c1.958,0.984,3.252,1.631,3.882,1.936c0.629,0.307,2.771,1.299,6.426,2.98c3.655,1.68,5.544,2.529,5.666,2.545
		c0.123,0.018,1.093,0.418,2.912,1.197c1.818,0.781,3.217,1.359,4.196,1.732c0.979,0.373,2.396,0.883,4.249,1.527
		c1.854,0.646,3.025,1.053,3.515,1.223c0.49,0.17,1.102,0.375,1.837,0.611c0.733,0.238,1.679,0.525,2.832,0.865
		c1.154,0.34,2.623,0.748,4.407,1.223s3.515,0.9,5.193,1.273s2.763,0.611,3.253,0.713c0.489,0.102,2.046,0.391,4.669,0.865
		c2.623,0.477,4.267,0.766,4.931,0.867c0.665,0.102,2.291,0.355,4.879,0.764s3.899,0.611,3.935,0.611s1.294,0.238,3.777,0.713
		c2.482,0.475,3.733,0.723,3.751,0.738l0.026,0.025l-0.157,7.59c-0.105,5.059-0.368,11.594-0.787,19.607
		c-0.42,8.014-0.752,13.615-0.997,16.809c-0.245,3.191-0.524,5.924-0.839,8.199c-0.315,2.275-0.683,4.432-1.103,6.469
		c-0.419,2.037-0.874,4.092-1.363,6.162c-0.49,2.072-0.928,3.889-1.312,5.451c-0.385,1.561-0.84,3.242-1.364,5.041
		c-0.524,1.801-0.84,2.887-0.944,3.26c-0.105,0.373-0.263,0.85-0.472,1.426c-0.21,0.578-0.455,1.291-0.735,2.141
		c-0.279,0.848-0.717,2.07-1.312,3.666c-0.594,1.596-1.083,2.869-1.469,3.82c-0.385,0.951-0.856,2.088-1.416,3.412
		s-1.276,2.92-2.15,4.787c-0.875,1.867-1.399,2.955-1.574,3.26c-0.175,0.307-0.813,1.418-1.915,3.336
		c-1.102,1.92-1.766,3.057-1.993,3.414c-0.228,0.355-0.77,1.254-1.627,2.697c-0.856,1.443-1.416,2.361-1.679,2.752
		c-0.262,0.391-0.664,1-1.206,1.832c-0.542,0.834-0.979,1.479-1.312,1.936c-0.332,0.459-0.717,1.002-1.154,1.631
		c-0.437,0.629-0.856,1.205-1.259,1.732c-0.402,0.525-0.717,0.967-0.944,1.324c-0.228,0.355-0.56,0.814-0.997,1.375
		c-0.437,0.561-0.856,1.119-1.259,1.68s-0.84,1.137-1.312,1.732c-0.472,0.594-0.874,1.104-1.207,1.527
		c-0.332,0.424-1.04,1.23-2.124,2.42c-1.084,1.188-2.36,2.547-3.829,4.074c-1.47,1.527-2.764,2.836-3.883,3.922
		s-1.862,1.773-2.229,2.063s-1.225,1.018-2.57,2.189c-1.347,1.172-2.168,1.885-2.466,2.139c-0.298,0.256-1.031,0.885-2.203,1.885
		c-1.172,1.002-1.941,1.646-2.309,1.936s-0.786,0.629-1.259,1.02c-0.472,0.391-1.128,0.926-1.967,1.604
		c-0.84,0.68-1.478,1.18-1.915,1.504c-0.438,0.322-0.856,0.611-1.26,0.865c-0.401,0.254-1.136,0.695-2.203,1.324
		c-1.066,0.627-1.766,1.053-2.098,1.273c-0.333,0.221-0.708,0.449-1.129,0.688c-0.419,0.236-0.856,0.51-1.311,0.814
		c-0.455,0.307-0.787,0.527-0.997,0.662c-0.21,0.137-0.665,0.373-1.363,0.713c-0.7,0.34-1.54,0.73-2.519,1.172
		c-0.979,0.441-1.661,0.73-2.046,0.867l-0.577,0.203l-0.63-0.154c-0.42-0.102-0.874-0.271-1.364-0.508
		c-0.489-0.238-1.312-0.646-2.465-1.223c-1.154-0.578-1.819-0.934-1.994-1.07c-0.175-0.135-0.62-0.434-1.337-0.891
		c-0.718-0.459-1.26-0.799-1.627-1.02s-1.084-0.645-2.15-1.273c-1.067-0.629-1.801-1.07-2.203-1.324s-0.822-0.543-1.259-0.865
		c-0.438-0.322-0.937-0.705-1.496-1.146s-1.302-1.043-2.229-1.807c-0.927-0.766-1.73-1.428-2.413-1.986
		c-0.682-0.561-1.679-1.41-2.99-2.549c-1.312-1.137-2.15-1.85-2.518-2.139s-1.172-0.967-2.413-2.037
		c-1.242-1.068-1.933-1.672-2.072-1.809c-0.14-0.135-0.761-0.738-1.862-1.807c-1.102-1.07-1.871-1.834-2.309-2.293
		s-1.398-1.477-2.885-3.055c-1.486-1.58-2.378-2.547-2.676-2.904c-0.297-0.355-0.734-0.883-1.312-1.578
		c-0.577-0.697-1.031-1.256-1.364-1.682c-0.332-0.424-0.664-0.865-0.996-1.324c-0.333-0.459-0.683-0.934-1.05-1.426
		s-0.699-0.934-0.996-1.324c-0.298-0.391-0.551-0.738-0.761-1.043c-0.21-0.307-0.499-0.705-0.866-1.197
		c-0.366-0.492-0.682-0.934-0.944-1.324c-0.262-0.391-0.611-0.9-1.049-1.529c-0.438-0.627-0.77-1.119-0.996-1.477
		c-0.228-0.355-0.596-0.916-1.103-1.682c-0.507-0.762-0.839-1.289-0.996-1.578c-0.158-0.287-0.595-1.018-1.312-2.189
		s-1.189-1.936-1.417-2.291c-0.228-0.357-0.795-1.334-1.705-2.93c-0.909-1.596-1.591-2.801-2.046-3.615
		c-0.454-0.816-0.856-1.58-1.206-2.293s-0.84-1.783-1.469-3.209c-0.63-1.426-0.944-2.154-0.944-2.189
		c0-0.033-0.315-0.814-0.944-2.342c-0.63-1.529-1.119-2.734-1.469-3.617s-0.84-2.225-1.469-4.023c-0.63-1.801-1.26-3.719-1.89-5.756
		c-0.629-2.037-1.328-4.516-2.098-7.436s-1.312-5.094-1.626-6.52c-0.315-1.426-0.752-3.498-1.312-6.213
		c-0.56-2.717-0.893-4.5-0.997-5.35c-0.104-0.848-0.332-3.445-0.683-7.791c-0.35-4.348-0.576-7.623-0.682-9.83
		c-0.104-2.207-0.227-4.551-0.367-7.029c-0.14-2.479-0.332-6.537-0.577-12.172c-0.244-5.637-0.367-9.627-0.367-11.969v-3.516
		l0.341-0.178c0.228-0.119,0.849-0.264,1.863-0.434c1.014-0.168,2.412-0.391,4.196-0.662s4.494-0.713,8.132-1.324
		c3.637-0.609,6.242-1.051,7.815-1.324c1.574-0.271,3.655-0.695,6.243-1.273c2.588-0.576,4.826-1.119,6.715-1.629
		s3.515-0.984,4.879-1.426s2.431-0.781,3.2-1.02s1.504-0.475,2.203-0.713s2.099-0.746,4.197-1.527
		c2.098-0.781,4.065-1.57,5.901-2.369c1.836-0.797,2.815-1.205,2.938-1.223c0.123-0.016,1.006-0.398,2.649-1.146
		c1.644-0.746,3.13-1.426,4.459-2.037c1.329-0.609,2.641-1.221,3.935-1.832s2.903-1.41,4.826-2.395l2.885-1.477H193.965z"/>
	<path id="svg_2" fill="#FFFF00" stroke="#FFFFFF" stroke-width="2" d="M191.323,1499.795h0.683l2.938,1.477
		c1.958,0.984,3.252,1.629,3.882,1.936c0.63,0.305,2.771,1.299,6.426,2.98c3.655,1.68,5.544,2.527,5.666,2.545
		c0.123,0.018,1.093,0.416,2.912,1.197c1.818,0.781,3.217,1.357,4.196,1.732c0.979,0.373,2.396,0.883,4.249,1.527
		s3.025,1.053,3.516,1.223c0.489,0.17,1.101,0.373,1.836,0.611c0.734,0.236,1.679,0.525,2.832,0.865
		c1.154,0.34,2.623,0.748,4.407,1.223s3.515,0.9,5.193,1.273s2.763,0.611,3.253,0.713c0.489,0.102,2.046,0.391,4.669,0.865
		c2.623,0.477,4.267,0.766,4.931,0.867c0.665,0.102,2.291,0.355,4.879,0.764c2.588,0.406,3.899,0.611,3.935,0.611
		s1.294,0.236,3.777,0.713c2.482,0.475,3.733,0.721,3.751,0.738l0.026,0.025l-0.157,7.59c-0.105,5.059-0.367,11.594-0.788,19.607
		c-0.419,8.014-0.751,13.615-0.996,16.809c-0.245,3.191-0.524,5.924-0.839,8.199c-0.315,2.275-0.683,4.432-1.103,6.469
		c-0.419,2.037-0.874,4.092-1.363,6.162c-0.49,2.07-0.928,3.889-1.312,5.449c-0.385,1.563-0.84,3.242-1.364,5.043
		c-0.524,1.799-0.84,2.887-0.944,3.26c-0.105,0.373-0.263,0.85-0.472,1.426c-0.21,0.578-0.455,1.291-0.735,2.139
		c-0.279,0.85-0.717,2.072-1.312,3.668c-0.594,1.596-1.083,2.869-1.469,3.82c-0.385,0.949-0.856,2.088-1.416,3.412
		s-1.276,2.92-2.15,4.787c-0.875,1.867-1.399,2.953-1.574,3.26c-0.175,0.305-0.813,1.418-1.915,3.336s-1.766,3.057-1.993,3.412
		c-0.228,0.357-0.77,1.256-1.627,2.699c-0.856,1.443-1.416,2.361-1.678,2.752c-0.263,0.391-0.665,1-1.207,1.832
		s-0.979,1.479-1.312,1.936c-0.332,0.459-0.717,1.002-1.154,1.631c-0.437,0.627-0.856,1.205-1.259,1.73
		c-0.402,0.527-0.717,0.969-0.944,1.324c-0.228,0.357-0.56,0.814-0.997,1.375c-0.437,0.561-0.856,1.121-1.259,1.682
		s-0.839,1.137-1.312,1.73c-0.472,0.596-0.874,1.105-1.206,1.529c-0.333,0.424-1.041,1.23-2.125,2.418
		c-1.084,1.189-2.36,2.547-3.829,4.076c-1.47,1.527-2.764,2.836-3.883,3.922s-1.862,1.773-2.229,2.063
		c-0.367,0.287-1.225,1.018-2.57,2.189c-1.347,1.172-2.168,1.885-2.466,2.139c-0.297,0.256-1.031,0.885-2.203,1.885
		c-1.172,1.002-1.94,1.646-2.309,1.936c-0.367,0.289-0.786,0.629-1.259,1.02c-0.472,0.391-1.128,0.924-1.967,1.604
		c-0.84,0.68-1.478,1.18-1.915,1.502c-0.438,0.324-0.857,0.611-1.259,0.867c-0.402,0.254-1.137,0.695-2.204,1.324
		c-1.066,0.627-1.766,1.053-2.098,1.273c-0.333,0.221-0.708,0.449-1.128,0.686c-0.42,0.238-0.857,0.51-1.312,0.816
		c-0.455,0.305-0.787,0.525-0.997,0.662s-0.664,0.373-1.363,0.713c-0.7,0.34-1.539,0.73-2.519,1.172s-1.661,0.729-2.046,0.865
		l-0.577,0.205l-0.63-0.154c-0.42-0.102-0.874-0.271-1.364-0.51c-0.489-0.236-1.312-0.645-2.465-1.221
		c-1.154-0.578-1.819-0.934-1.994-1.07s-0.62-0.434-1.337-0.893c-0.717-0.457-1.26-0.797-1.627-1.018
		c-0.366-0.221-1.084-0.645-2.15-1.273s-1.802-1.07-2.203-1.324c-0.402-0.254-0.822-0.543-1.259-0.865
		c-0.438-0.322-0.937-0.705-1.495-1.146c-0.561-0.441-1.303-1.045-2.23-1.809c-0.927-0.764-1.73-1.426-2.413-1.986
		c-0.682-0.561-1.679-1.408-2.99-2.547c-1.312-1.137-2.15-1.85-2.518-2.139s-1.172-0.967-2.413-2.037
		c-1.242-1.07-1.933-1.672-2.072-1.809c-0.14-0.135-0.761-0.738-1.862-1.807c-1.102-1.07-1.871-1.834-2.309-2.293
		c-0.437-0.459-1.398-1.477-2.885-3.055c-1.487-1.58-2.378-2.549-2.676-2.904c-0.297-0.355-0.734-0.883-1.312-1.58
		c-0.577-0.695-1.031-1.254-1.363-1.68c-0.333-0.424-0.665-0.865-0.997-1.324s-0.683-0.934-1.05-1.426s-0.699-0.934-0.996-1.324
		c-0.298-0.391-0.551-0.738-0.761-1.043c-0.21-0.307-0.499-0.705-0.866-1.197s-0.682-0.934-0.944-1.324
		c-0.262-0.391-0.611-0.9-1.049-1.529s-0.77-1.121-0.996-1.477c-0.228-0.355-0.596-0.916-1.103-1.682
		c-0.507-0.762-0.839-1.289-0.996-1.578c-0.158-0.289-0.595-1.018-1.312-2.189s-1.189-1.936-1.417-2.293
		c-0.228-0.355-0.795-1.332-1.705-2.928c-0.909-1.596-1.591-2.801-2.046-3.617c-0.454-0.814-0.856-1.578-1.206-2.291
		s-0.84-1.783-1.469-3.209c-0.63-1.426-0.944-2.156-0.944-2.189c0-0.035-0.314-0.814-0.944-2.344
		c-0.63-1.527-1.119-2.732-1.469-3.615s-0.84-2.225-1.469-4.025c-0.63-1.799-1.26-3.717-1.889-5.754
		c-0.63-2.037-1.329-4.516-2.099-7.436s-1.312-5.094-1.626-6.52c-0.315-1.428-0.752-3.498-1.312-6.215
		c-0.56-2.715-0.893-4.498-0.997-5.348s-0.332-3.445-0.682-7.791c-0.351-4.348-0.577-7.623-0.683-9.832
		c-0.104-2.205-0.227-4.549-0.367-7.027c-0.14-2.479-0.332-6.537-0.577-12.174c-0.244-5.635-0.367-9.625-0.367-11.969v-3.514
		l0.341-0.178c0.228-0.119,0.849-0.264,1.863-0.434c1.014-0.17,2.412-0.391,4.196-0.662c1.783-0.271,4.494-0.713,8.132-1.324
		c3.637-0.611,6.242-1.053,7.816-1.324c1.573-0.271,3.654-0.695,6.242-1.273c2.588-0.576,4.826-1.119,6.715-1.629
		s3.515-0.984,4.879-1.426s2.431-0.781,3.2-1.02s1.504-0.475,2.203-0.713s2.099-0.746,4.197-1.527s4.065-1.572,5.901-2.369
		s2.815-1.205,2.938-1.223c0.123-0.018,1.006-0.398,2.649-1.146c1.644-0.746,3.13-1.426,4.459-2.037
		c1.329-0.609,2.641-1.223,3.935-1.832c1.294-0.611,2.902-1.41,4.826-2.395l2.886-1.477H191.323z"/>
	<path id="path2" fill="#CC4020" d="M193.73,1490.948h0.735l3.171,1.594c2.114,1.064,3.511,1.76,4.19,2.09
		c0.679,0.33,2.991,1.402,6.936,3.217c3.944,1.813,5.983,2.729,6.115,2.748c0.132,0.018,1.18,0.449,3.143,1.291
		c1.962,0.844,3.473,1.467,4.529,1.869c1.057,0.404,2.586,0.953,4.586,1.65c2.001,0.695,3.266,1.137,3.794,1.318
		c0.528,0.184,1.188,0.404,1.981,0.66s1.813,0.568,3.058,0.936c1.246,0.365,2.831,0.805,4.757,1.318
		c1.925,0.514,3.793,0.971,5.605,1.375c1.812,0.402,2.981,0.66,3.51,0.77s2.208,0.422,5.039,0.934
		c2.831,0.514,4.605,0.826,5.322,0.936c0.718,0.109,2.473,0.385,5.266,0.824c2.794,0.439,4.209,0.66,4.246,0.66
		c0.038,0,1.397,0.256,4.077,0.77c2.681,0.512,4.029,0.777,4.049,0.797l0.028,0.027l-0.17,8.191
		c-0.113,5.461-0.396,12.516-0.85,21.166c-0.453,8.648-0.812,14.697-1.075,18.141c-0.265,3.445-0.566,6.396-0.906,8.852
		s-0.736,4.783-1.189,6.982c-0.452,2.199-0.943,4.416-1.472,6.652c-0.528,2.234-1.001,4.195-1.416,5.881
		c-0.415,1.688-0.905,3.502-1.472,5.443c-0.566,1.943-0.906,3.115-1.02,3.518c-0.113,0.404-0.283,0.916-0.51,1.541
		c-0.226,0.621-0.49,1.393-0.792,2.309s-0.774,2.236-1.416,3.957c-0.642,1.723-1.17,3.098-1.585,4.123
		c-0.416,1.027-0.925,2.254-1.529,3.684c-0.604,1.43-1.377,3.152-2.321,5.168c-0.943,2.016-1.51,3.188-1.698,3.52
		c-0.188,0.328-0.878,1.529-2.066,3.6c-1.189,2.07-1.906,3.299-2.152,3.684c-0.245,0.385-0.83,1.355-1.755,2.914
		c-0.925,1.557-1.529,2.547-1.812,2.969c-0.283,0.422-0.718,1.08-1.303,1.979s-1.057,1.596-1.415,2.09s-0.774,1.08-1.246,1.76
		c-0.472,0.678-0.925,1.301-1.358,1.867c-0.435,0.568-0.774,1.045-1.02,1.43s-0.604,0.881-1.076,1.484
		c-0.472,0.605-0.925,1.209-1.358,1.814c-0.435,0.605-0.905,1.229-1.416,1.869c-0.51,0.643-0.943,1.191-1.302,1.65
		c-0.358,0.457-1.123,1.328-2.293,2.611s-2.548,2.748-4.134,4.398c-1.585,1.648-2.981,3.059-4.189,4.232
		c-1.208,1.172-2.011,1.914-2.407,2.227c-0.396,0.311-1.32,1.1-2.773,2.363s-2.341,2.035-2.661,2.309
		c-0.321,0.275-1.114,0.953-2.378,2.035c-1.265,1.08-2.096,1.777-2.492,2.088c-0.396,0.313-0.849,0.678-1.358,1.1
		s-1.217,1-2.123,1.732s-1.595,1.273-2.066,1.621c-0.473,0.348-0.925,0.66-1.359,0.936c-0.435,0.273-1.227,0.75-2.378,1.43
		c-1.151,0.678-1.906,1.135-2.265,1.373c-0.359,0.238-0.765,0.486-1.218,0.742c-0.453,0.258-0.925,0.551-1.415,0.879
		c-0.491,0.332-0.85,0.568-1.076,0.717c-0.227,0.145-0.717,0.402-1.473,0.77c-0.754,0.365-1.66,0.787-2.717,1.264
		c-1.058,0.477-1.793,0.787-2.209,0.934l-0.622,0.221l-0.68-0.164c-0.453-0.111-0.943-0.293-1.473-0.551
		c-0.528-0.256-1.415-0.695-2.66-1.318c-1.246-0.623-1.963-1.01-2.152-1.154c-0.188-0.148-0.67-0.469-1.443-0.963
		c-0.774-0.494-1.359-0.861-1.755-1.1c-0.396-0.238-1.171-0.697-2.322-1.375s-1.943-1.154-2.378-1.43
		c-0.434-0.273-0.887-0.586-1.358-0.934s-1.01-0.762-1.614-1.236c-0.604-0.477-1.406-1.127-2.406-1.953
		c-1-0.824-1.868-1.539-2.604-2.143c-0.735-0.605-1.812-1.521-3.227-2.75c-1.416-1.227-2.322-1.996-2.719-2.309
		s-1.265-1.045-2.604-2.199s-2.085-1.805-2.236-1.951c-0.15-0.146-0.82-0.797-2.01-1.951s-2.02-1.979-2.491-2.475
		c-0.472-0.494-1.51-1.594-3.114-3.299c-1.604-1.703-2.566-2.748-2.888-3.133s-0.793-0.953-1.415-1.705
		c-0.623-0.75-1.114-1.355-1.473-1.814c-0.358-0.457-0.717-0.934-1.076-1.43c-0.358-0.494-0.735-1.006-1.132-1.539
		c-0.396-0.531-0.755-1.008-1.076-1.428c-0.32-0.422-0.594-0.799-0.82-1.127c-0.227-0.33-0.538-0.762-0.935-1.293
		s-0.736-1.008-1.02-1.43c-0.282-0.42-0.66-0.971-1.132-1.648s-0.83-1.209-1.076-1.594c-0.245-0.385-0.642-0.99-1.188-1.814
		c-0.548-0.824-0.906-1.393-1.076-1.705c-0.17-0.311-0.642-1.1-1.415-2.363c-0.774-1.266-1.284-2.09-1.529-2.475
		s-0.858-1.438-1.84-3.16s-1.718-3.023-2.209-3.904c-0.49-0.879-0.925-1.703-1.302-2.473c-0.378-0.771-0.906-1.924-1.586-3.465
		c-0.679-1.539-1.019-2.326-1.019-2.363s-0.34-0.879-1.02-2.529c-0.68-1.648-1.208-2.949-1.585-3.902
		c-0.378-0.953-0.906-2.4-1.586-4.344c-0.679-1.943-1.358-4.014-2.038-6.211c-0.68-2.199-1.435-4.875-2.265-8.027
		s-1.415-5.498-1.755-7.037s-0.812-3.775-1.416-6.707c-0.604-2.932-0.962-4.855-1.075-5.771s-0.358-3.721-0.736-8.412
		s-0.623-8.229-0.736-10.611c-0.113-2.381-0.245-4.91-0.396-7.586c-0.15-2.676-0.358-7.055-0.622-13.139
		c-0.265-6.084-0.396-10.391-0.396-12.918v-3.795l0.368-0.191c0.245-0.129,0.915-0.283,2.01-0.467s2.604-0.422,4.529-0.715
		c1.925-0.295,4.851-0.771,8.776-1.43c3.926-0.66,6.737-1.137,8.437-1.43c1.698-0.293,3.944-0.752,6.738-1.375
		c2.793-0.623,5.209-1.209,7.247-1.758c2.038-0.551,3.793-1.064,5.266-1.541c1.472-0.475,2.623-0.842,3.453-1.098
		c0.831-0.258,1.624-0.514,2.379-0.77c0.755-0.258,2.265-0.809,4.529-1.65c2.265-0.844,4.389-1.695,6.37-2.557
		s3.038-1.301,3.17-1.318c0.133-0.02,1.086-0.432,2.859-1.238c1.774-0.805,3.379-1.539,4.813-2.197c1.434-0.66,2.85-1.32,4.246-1.98
		c1.396-0.658,3.133-1.52,5.209-2.584l3.114-1.594H193.73L193.73,1490.948z"/>
	<path id="svg_4" fill="#CC4020" d="M194.04,1498.889h0.683l2.938,1.477c1.958,0.986,3.253,1.631,3.882,1.936
		c0.63,0.305,2.772,1.299,6.427,2.98c3.654,1.68,5.543,2.529,5.666,2.547c0.122,0.016,1.093,0.414,2.911,1.197
		c1.818,0.779,3.218,1.355,4.196,1.73c0.979,0.373,2.396,0.883,4.25,1.527c1.854,0.646,3.025,1.053,3.515,1.223
		s1.102,0.373,1.836,0.611s1.679,0.525,2.833,0.865s2.623,0.748,4.407,1.223c1.783,0.477,3.515,0.9,5.192,1.273
		c1.68,0.373,2.764,0.611,3.253,0.713c0.49,0.102,2.046,0.391,4.669,0.867c2.623,0.475,4.268,0.764,4.932,0.865
		s2.291,0.355,4.879,0.764s3.899,0.611,3.935,0.611s1.294,0.238,3.776,0.713c2.483,0.477,3.733,0.723,3.751,0.738l0.026,0.025
		l-0.157,7.59c-0.104,5.059-0.367,11.594-0.787,19.607s-0.752,13.615-0.996,16.809c-0.245,3.191-0.525,5.924-0.84,8.199
		s-0.682,4.432-1.102,6.469s-0.874,4.092-1.364,6.164c-0.489,2.07-0.927,3.887-1.312,5.449c-0.385,1.561-0.839,3.242-1.364,5.041
		c-0.524,1.799-0.839,2.887-0.943,3.26c-0.105,0.373-0.263,0.85-0.473,1.426c-0.21,0.578-0.454,1.291-0.734,2.141
		c-0.28,0.848-0.717,2.07-1.312,3.666s-1.084,2.869-1.469,3.82c-0.385,0.949-0.856,2.088-1.416,3.412s-1.276,2.92-2.151,4.787
		c-0.874,1.867-1.398,2.955-1.573,3.26c-0.175,0.307-0.813,1.418-1.915,3.336c-1.102,1.92-1.767,3.057-1.993,3.414
		c-0.228,0.355-0.771,1.256-1.627,2.699s-1.416,2.359-1.679,2.75s-0.664,1-1.206,1.832s-0.979,1.479-1.312,1.936
		c-0.333,0.459-0.717,1.002-1.154,1.631s-0.857,1.205-1.259,1.73c-0.402,0.527-0.718,0.969-0.944,1.326
		c-0.228,0.355-0.56,0.814-0.997,1.375c-0.438,0.559-0.856,1.119-1.259,1.68s-0.84,1.139-1.312,1.732
		c-0.473,0.594-0.874,1.104-1.207,1.527c-0.332,0.424-1.04,1.23-2.124,2.42c-1.085,1.188-2.361,2.547-3.83,4.074
		s-2.763,2.836-3.882,3.922s-1.862,1.773-2.229,2.063c-0.368,0.289-1.225,1.018-2.57,2.189c-1.347,1.172-2.169,1.885-2.466,2.139
		c-0.298,0.256-1.032,0.885-2.204,1.885c-1.171,1.002-1.94,1.648-2.308,1.936c-0.367,0.289-0.787,0.629-1.259,1.02
		c-0.473,0.391-1.128,0.926-1.968,1.604c-0.84,0.68-1.478,1.18-1.914,1.504c-0.438,0.322-0.857,0.611-1.26,0.865
		s-1.137,0.695-2.203,1.324c-1.067,0.629-1.766,1.053-2.099,1.273c-0.332,0.221-0.708,0.449-1.128,0.688
		c-0.42,0.236-0.856,0.51-1.312,0.814s-0.787,0.527-0.996,0.662c-0.21,0.137-0.665,0.373-1.364,0.713
		c-0.7,0.34-1.539,0.73-2.519,1.172s-1.661,0.73-2.045,0.865l-0.578,0.203l-0.629-0.152c-0.42-0.102-0.875-0.271-1.364-0.508
		c-0.489-0.238-1.312-0.646-2.466-1.223c-1.153-0.578-1.818-0.934-1.993-1.07c-0.175-0.135-0.621-0.432-1.338-0.891
		s-1.259-0.799-1.626-1.02s-1.084-0.645-2.15-1.273c-1.067-0.627-1.802-1.068-2.204-1.324c-0.401-0.254-0.822-0.543-1.259-0.865
		s-0.936-0.705-1.495-1.146s-1.303-1.043-2.229-1.809c-0.927-0.764-1.731-1.426-2.413-1.986c-0.682-0.559-1.679-1.408-2.99-2.545
		c-1.312-1.139-2.15-1.852-2.519-2.141c-0.367-0.287-1.171-0.967-2.412-2.037c-1.242-1.068-1.933-1.672-2.073-1.807
		c-0.14-0.137-0.761-0.738-1.861-1.809c-1.103-1.07-1.872-1.834-2.309-2.291c-0.438-0.459-1.399-1.479-2.886-3.057
		c-1.486-1.58-2.378-2.547-2.675-2.904c-0.297-0.355-0.734-0.883-1.312-1.578c-0.577-0.697-1.032-1.256-1.364-1.682
		c-0.332-0.424-0.665-0.865-0.997-1.322c-0.332-0.459-0.682-0.936-1.049-1.428s-0.699-0.934-0.997-1.324
		c-0.297-0.391-0.551-0.738-0.761-1.043c-0.209-0.307-0.498-0.705-0.865-1.197s-0.682-0.934-0.944-1.324s-0.612-0.9-1.049-1.529
		c-0.438-0.627-0.77-1.119-0.997-1.477c-0.228-0.355-0.595-0.916-1.102-1.68s-0.839-1.291-0.996-1.58
		c-0.158-0.287-0.596-1.018-1.312-2.189c-0.718-1.172-1.189-1.936-1.417-2.291c-0.228-0.357-0.796-1.334-1.705-2.93
		s-1.591-2.801-2.046-3.615c-0.455-0.816-0.856-1.58-1.206-2.293s-0.84-1.783-1.47-3.209c-0.629-1.426-0.944-2.156-0.944-2.189
		s-0.314-0.814-0.944-2.344c-0.629-1.527-1.119-2.732-1.469-3.615s-0.839-2.225-1.469-4.023c-0.629-1.801-1.259-3.719-1.889-5.756
		s-1.328-4.516-2.099-7.436c-0.769-2.92-1.312-5.094-1.626-6.52s-0.752-3.498-1.312-6.213c-0.56-2.717-0.892-4.5-0.997-5.348
		c-0.104-0.85-0.332-3.447-0.682-7.793c-0.35-4.348-0.577-7.623-0.682-9.83c-0.105-2.207-0.228-4.551-0.367-7.029
		s-0.332-6.535-0.577-12.172s-0.367-9.627-0.367-11.969v-3.516l0.341-0.178c0.228-0.119,0.849-0.264,1.862-0.434
		c1.015-0.168,2.413-0.391,4.197-0.662c1.783-0.271,4.493-0.713,8.131-1.324c3.638-0.609,6.243-1.053,7.816-1.324
		c1.574-0.271,3.655-0.695,6.243-1.271c2.588-0.578,4.826-1.121,6.715-1.631s3.515-0.984,4.879-1.426
		c1.363-0.441,2.431-0.781,3.2-1.02c0.769-0.236,1.504-0.475,2.203-0.713s2.099-0.746,4.196-1.527
		c2.099-0.781,4.065-1.57,5.902-2.369c1.836-0.797,2.815-1.205,2.938-1.223c0.122-0.016,1.006-0.398,2.649-1.145
		c1.644-0.748,3.13-1.426,4.459-2.039c1.328-0.609,2.641-1.221,3.935-1.832s2.902-1.408,4.826-2.395l2.885-1.477H194.04z"/>
	<path id="svg_3" fill="#2B2D30" d="M193.811,1504.324h0.633l2.724,1.389c1.817,0.928,3.017,1.535,3.601,1.822
		c0.584,0.289,2.57,1.223,5.96,2.805s5.141,2.381,5.255,2.398c0.113,0.016,1.014,0.391,2.7,1.127
		c1.687,0.734,2.984,1.277,3.892,1.629c0.908,0.352,2.223,0.832,3.941,1.438c1.719,0.609,2.806,0.992,3.26,1.152
		s1.021,0.352,1.703,0.574c0.681,0.225,1.557,0.496,2.627,0.816c1.07,0.318,2.433,0.703,4.087,1.15s3.26,0.846,4.816,1.197
		c1.558,0.352,2.563,0.576,3.017,0.672s1.897,0.367,4.33,0.814c2.433,0.449,3.957,0.719,4.573,0.816
		c0.616,0.096,2.125,0.336,4.525,0.719c2.399,0.383,3.616,0.574,3.648,0.574s1.2,0.225,3.503,0.672
		c2.304,0.447,3.463,0.68,3.479,0.695l0.024,0.023l-0.146,7.145c-0.098,4.762-0.341,10.914-0.729,18.459
		c-0.39,7.543-0.698,12.816-0.925,15.82c-0.227,3.006-0.486,5.578-0.778,7.719c-0.292,2.143-0.633,4.172-1.022,6.09
		c-0.389,1.918-0.811,3.852-1.265,5.801s-0.859,3.66-1.216,5.131c-0.357,1.471-0.778,3.053-1.266,4.746
		c-0.486,1.693-0.778,2.717-0.876,3.068c-0.097,0.352-0.243,0.799-0.438,1.342c-0.194,0.545-0.422,1.215-0.681,2.014
		c-0.26,0.799-0.665,1.951-1.217,3.453c-0.551,1.502-1.005,2.701-1.362,3.596c-0.356,0.895-0.794,1.965-1.313,3.211
		c-0.519,1.248-1.184,2.75-1.994,4.508c-0.812,1.758-1.298,2.779-1.46,3.068c-0.162,0.287-0.754,1.334-1.776,3.141
		c-1.021,1.805-1.638,2.875-1.849,3.211s-0.714,1.184-1.508,2.543c-0.795,1.357-1.313,2.221-1.557,2.588
		c-0.244,0.367-0.616,0.943-1.119,1.727s-0.908,1.391-1.217,1.82c-0.308,0.434-0.665,0.943-1.07,1.535s-0.795,1.135-1.168,1.629
		c-0.372,0.496-0.664,0.912-0.875,1.248c-0.211,0.334-0.52,0.768-0.925,1.295s-0.795,1.055-1.168,1.582
		c-0.372,0.527-0.778,1.07-1.216,1.629c-0.438,0.561-0.811,1.039-1.119,1.439c-0.309,0.398-0.965,1.158-1.971,2.277
		c-1.005,1.119-2.188,2.396-3.552,3.834c-1.362,1.439-2.563,2.67-3.601,3.693s-1.727,1.67-2.067,1.941s-1.136,0.959-2.384,2.061
		c-1.249,1.104-2.011,1.773-2.287,2.014c-0.275,0.24-0.956,0.832-2.043,1.775c-1.087,0.941-1.8,1.549-2.141,1.822
		c-0.341,0.27-0.729,0.59-1.168,0.957c-0.438,0.369-1.046,0.873-1.824,1.512s-1.371,1.109-1.776,1.414
		c-0.405,0.303-0.794,0.574-1.167,0.814c-0.374,0.24-1.055,0.654-2.044,1.246s-1.638,0.99-1.946,1.199
		c-0.308,0.207-0.656,0.424-1.046,0.646c-0.39,0.225-0.794,0.48-1.217,0.768c-0.421,0.287-0.729,0.496-0.924,0.623
		c-0.194,0.129-0.616,0.352-1.265,0.672s-1.428,0.688-2.335,1.102c-0.908,0.416-1.541,0.688-1.898,0.816l-0.535,0.191l-0.584-0.145
		c-0.389-0.094-0.811-0.254-1.265-0.479s-1.217-0.607-2.286-1.15c-1.07-0.543-1.687-0.879-1.85-1.008
		c-0.162-0.127-0.575-0.406-1.24-0.838s-1.167-0.752-1.509-0.959c-0.34-0.209-1.005-0.607-1.994-1.199s-1.67-1.008-2.044-1.246
		c-0.372-0.24-0.762-0.512-1.167-0.816c-0.405-0.303-0.868-0.662-1.387-1.078c-0.52-0.416-1.208-0.982-2.068-1.701
		c-0.859-0.719-1.604-1.342-2.237-1.869c-0.633-0.529-1.557-1.328-2.773-2.398c-1.216-1.07-1.994-1.742-2.335-2.014
		s-1.087-0.91-2.238-1.918c-1.151-1.006-1.792-1.574-1.922-1.701c-0.13-0.129-0.705-0.695-1.728-1.703
		c-1.021-1.006-1.735-1.725-2.141-2.156s-1.297-1.391-2.676-2.877c-1.378-1.486-2.205-2.396-2.481-2.732
		c-0.275-0.336-0.681-0.832-1.216-1.486c-0.535-0.656-0.957-1.184-1.266-1.582c-0.308-0.4-0.616-0.816-0.924-1.248
		c-0.309-0.432-0.633-0.879-0.973-1.342c-0.341-0.463-0.649-0.879-0.925-1.246c-0.276-0.367-0.511-0.695-0.706-0.982
		c-0.194-0.289-0.462-0.664-0.803-1.127c-0.34-0.465-0.632-0.879-0.875-1.246s-0.568-0.848-0.974-1.439s-0.713-1.055-0.924-1.391
		s-0.552-0.863-1.021-1.582c-0.471-0.719-0.779-1.215-0.925-1.486c-0.146-0.271-0.552-0.959-1.216-2.061
		c-0.666-1.104-1.104-1.822-1.314-2.158s-0.737-1.254-1.581-2.758c-0.843-1.502-1.476-2.637-1.897-3.404
		c-0.422-0.766-0.794-1.484-1.118-2.156c-0.325-0.672-0.779-1.678-1.363-3.02c-0.583-1.344-0.875-2.031-0.875-2.063
		s-0.292-0.768-0.877-2.205c-0.583-1.439-1.037-2.574-1.361-3.404s-0.778-2.094-1.362-3.787c-0.584-1.695-1.168-3.5-1.752-5.418
		s-1.232-4.252-1.946-7c-0.713-2.75-1.216-4.795-1.508-6.137c-0.292-1.344-0.697-3.293-1.216-5.85
		c-0.52-2.557-0.827-4.234-0.925-5.033s-0.309-3.246-0.633-7.336c-0.324-4.092-0.535-7.176-0.632-9.254
		c-0.098-2.076-0.212-4.283-0.341-6.615c-0.13-2.334-0.309-6.154-0.535-11.459c-0.228-5.307-0.341-9.063-0.341-11.268v-3.309
		l0.316-0.168c0.211-0.111,0.786-0.248,1.728-0.406c0.94-0.16,2.237-0.369,3.892-0.623c1.654-0.256,4.168-0.672,7.541-1.246
		c3.374-0.576,5.79-0.992,7.25-1.248c1.459-0.256,3.389-0.654,5.789-1.197c2.4-0.545,4.477-1.057,6.228-1.535
		c1.752-0.479,3.26-0.928,4.525-1.342c1.265-0.416,2.254-0.736,2.968-0.961c0.713-0.223,1.395-0.445,2.043-0.67
		s1.946-0.703,3.893-1.439c1.945-0.734,3.771-1.477,5.473-2.229c1.703-0.75,2.611-1.135,2.725-1.15
		c0.114-0.016,0.933-0.375,2.457-1.078s2.903-1.344,4.136-1.918c1.232-0.576,2.448-1.15,3.649-1.727
		c1.2-0.576,2.691-1.326,4.476-2.254l2.676-1.389H193.811z"/>
</g>
<polygon fill="#CC4020" points="233.88,1551.58 245.942,1563.691 183.816,1625.815 149.326,1594.797 163.024,1580.936 
	183.816,1601.537 "/>
</svg>
